<?xml version="1.0" encoding="utf-8"?>
<svg version="1.1" xmlns="http://www.w3.org/2000/svg" id="logo"
    xmlns:xlink="http://www.w3.org/1999/xlink" x="0px" y="0px"
    width="208.4px" height="199.3px" viewBox="0 0 208.4 199.3"
    style="enable-background:new 0 0 208.4 199.3;" xml:space="preserve"
>
<path d="M205.8,94.9c-1.1-0.2-2.3-0.5-3.4-0.6c-1.7-0.2-3.4-0.4-5.3-0.6c0.4-0.3,0.6-0.6,0.9-0.8c1.7-1.3,3.3-2.5,5-3.8
	c0.7-0.6,1.4-1.2,2-1.9c1.7-2.1,0.7-5.2-2-5.9c-0.8-0.2-1.7-0.3-2.6-0.3c-1.9,0-3.8,0-5.8,0c-0.3,0-0.6,0-1.1-0.1
	c0.3-0.3,0.4-0.4,0.5-0.5c1.5-1.4,3.1-2.8,4.6-4.2c0.9-0.8,1.7-1.7,2.4-2.6c1.6-2.1,0.7-4.1-0.9-5.2c-0.5-0.3-1.1-0.6-1.6-0.7
	c-1.3-0.2-2.5-0.4-3.8-0.2c-1.2,0.2-2.4,0.5-3.6,0.7c-1.1,0.2-2.2,0.4-3.5,0.6c0.7-0.8,1.2-1.5,1.6-2.1c1.6-2.2,3.3-4.3,4.8-6.6
	c0.5-0.7,0.7-1.5,1-2.3c0.4-1.5-0.3-3.2-2.3-3.7c-1-0.2-2.1-0.3-3.1-0.1c-2,0.2-4,0.6-6,0.9c-0.3,0.1-0.7,0.1-1.1,0.1
	c0.8-1.6,1.6-2.9,2.3-4.4c0.4-0.9,0.8-1.8,1-2.7c0.6-2.8-1.1-4.8-4-4.7c-0.3,0-0.6,0-0.9,0.1c-0.8,0.2-1.6,0.4-2.4,0.7
	c-1.5,0.6-2.9,1.3-4.4,2c-0.4,0.2-0.7,0.4-1.3,0.4c0.3-0.4,0.5-0.8,0.7-1.1c1.7-2.4,3.1-5,4-7.9c0.3-1.2,0.5-2.3,0.4-3.5
	c-0.2-2-1.5-3-3.5-2.6c-1,0.2-2.1,0.6-3,1.1c-2.1,1.1-4.2,2.2-6.4,3.4c-0.3,0.1-0.5,0.2-1,0.4c0.1-0.4,0.2-0.7,0.2-1
	c0.5-1.4,0.9-2.9,1.4-4.3c0.5-1.6,0.9-3.1,1.2-4.7c0.3-1.4,0-2.7-1.3-3.6c-1.3-0.9-2.6-0.8-3.8,0c-0.7,0.4-1.3,0.9-1.9,1.4
	c-2.7,2.3-5.3,4.6-8,6.9c-0.3,0.2-0.6,0.4-1.1,0.8c0.1-0.5,0.2-0.7,0.2-1c0.5-1.8,1-3.5,1.4-5.3c0.6-2.6,1.2-5.1,1.4-7.8
	c0.1-2.1-0.9-3-3-2.6c-0.4,0.1-0.7,0.2-1,0.3c-1.5,0.6-2.9,1.5-4,2.8c-1.6,1.8-3.2,3.6-4.8,5.4c-0.2,0.2-0.4,0.4-0.7,0.6
	c0-0.5,0-0.9,0-1.3c0.1-2.8,0.3-5.5,0.4-8.3c0.1-1.3,0.1-2.6,0-4c-0.1-1.6-1.1-2.5-2.7-2.6c-1.1,0-2,0.4-2.8,1.1
	c-1.1,1-1.9,2.4-2.7,3.6c-1,1.5-2,3-3.1,4.4c-0.2,0.2-0.4,0.4-0.8,0.7c0-0.4,0-0.6,0-0.8c0-2.5,0-5-0.1-7.4c0-1.6-0.3-3.1-1.2-4.5
	c-1-1.7-2.4-2-3.9-0.7c-0.6,0.5-1.2,1.1-1.7,1.7c-2,2.6-3.7,5.4-5,8.4c-0.3,0.7-0.6,1.4-1.1,2.2c-0.2-0.7-0.4-1.1-0.5-1.6
	c-0.3-1.9-0.6-3.9-0.9-5.8c-0.2-1.8-0.5-3.6-1.2-5.4c-0.8-1.8-2-3.3-3.9-4.4c-0.4,0.4-0.7,0.8-1,1.2c-1.1,1.3-1.9,2.9-2.5,4.5
	c-0.6,1.5-1.1,3.1-1.7,4.6c-0.4,1-0.9,1.9-1.7,2.8c-0.1-0.5-0.2-0.9-0.3-1.3c-0.3-2.7-1.1-5.2-2-7.8c-0.2-0.5-0.3-0.9-0.6-1.3
	C99,1.6,98,1.1,96.6,1.2c-1.2,0.1-2.2,0.7-2.7,1.8c-0.4,0.8-0.7,1.7-1,2.6c-1,3.2-1.9,6.4-2.8,9.5c-0.1,0.2-0.2,0.4-0.4,0.8
	c-0.3-0.5-0.5-0.9-0.7-1.3c-1.4-2.8-2.9-5.6-4.3-8.4c-1-1.8-2.4-2.5-4.4-2.1c-1,0.2-1.8,0.7-2.2,1.7c-0.2,0.4-0.3,0.9-0.4,1.4
	c-0.3,2.5-0.7,5-1,7.5c-0.2,1.1-0.3,2.3-0.5,3.7c-1.3-2-2.4-3.9-3.6-5.7c-0.6-0.9-1.2-1.7-1.8-2.5c-1.2-1.4-2.7-2-4.5-1.8
	c-1.2,0.1-2,0.8-2.4,1.8c-0.1,0.4-0.2,0.8-0.3,1.1c-0.7,3.4-0.5,6.8-0.1,10.3c0,0.4,0.1,0.7,0.1,1.1c-0.9-0.9-1.6-1.8-2.4-2.8
	c-1-1.2-2-2.5-3-3.7c-0.7-0.9-1.7-1.4-2.8-1.7c-1.6-0.4-2.7,0.3-2.8,2c-0.1,0.9,0,1.8,0,2.6c0.2,3,0.4,6,0.6,9c0,0.5,0.1,1,0,1.7
	c-0.4-0.5-0.7-0.8-1-1.1c-1.4-1.4-2.7-2.9-4.1-4.3c-1-1-2.2-1.8-3.7-2.2c-1.9-0.5-3,0.7-3.4,2c-0.3,1.2-0.3,2.4-0.1,3.6
	c0.4,3.4,1.1,6.8,1.9,10.1c0.1,0.3,0.1,0.5,0.2,0.9c-0.6-0.4-1-0.7-1.4-1c-1.1-0.8-2.2-1.6-3.4-2.3c-1.2-0.7-2.3-1.4-3.6-1.9
	c-2.7-1-5.5,1-5.5,3.9c0,0.7,0.2,1.5,0.4,2.2c0.6,2.1,1.3,4.2,1.9,6.3c0.1,0.2,0.1,0.4,0.1,0.8c-1.2-0.4-2.2-0.7-3.3-1
	c-1.6-0.5-3.2-1-4.9-1.2c-1.7-0.3-2.8,0.8-2.6,2.5c0,0.2,0.1,0.5,0.1,0.7c0.3,0.9,0.5,1.9,0.9,2.7c1,2.3,2.1,4.6,3.5,6.7
	c0.2,0.3,0.4,0.7,0.8,1.2c-0.5,0-0.7,0-0.9-0.1c-1.8-0.3-3.6-0.8-5.4-1c-1.5-0.2-2.9-0.3-4.4-0.4c-1.3,0-2.5,0.6-3.3,1.7
	c-1.2,1.6-1.2,3.3-0.2,4.9c1,1.5,2.1,3,3.2,4.5c0.4,0.6,0.9,1.1,1.5,1.9c-1.4-0.2-2.5-0.4-3.6-0.6c-2.2-0.4-4.2,0.3-6,1.5
	c-1.3,0.9-1.6,2.2-0.8,3.6c0.4,0.7,0.9,1.4,1.5,2c1.3,1.3,2.7,2.5,4.1,3.7c0.9,0.8,1.8,1.7,2.6,2.9c-0.4,0.1-0.7,0.2-1,0.2
	c-1.2,0.1-2.5,0.2-3.7,0.3C7.9,83.7,6,84,4.2,84.2c-0.9,0.1-1.7,0.6-2.4,1.1c-0.6,0.5-0.8,1.1-0.7,1.9c0.3,1.4,0.9,2.6,2,3.4
	c0.7,0.5,1.5,1,2.2,1.4c1.5,0.9,3.1,1.7,4.6,2.6c0.9,0.5,1.8,1.1,2.2,2.3c-2.3,0.8-4.5,1.5-6.6,2.3c-0.7,0.3-1.4,0.6-2.1,0.9
	c-1.8,1.1-2.3,2.7-1.2,4.6c0.7,1.3,1.7,2.3,3,3.1c1.1,0.6,2.2,1.1,3.3,1.7c0.4,0.2,0.7,0.4,1.3,0.6c-0.6,0.3-1,0.4-1.4,0.6
	c-1.8,0.8-3.6,1.6-5.4,2.4c-0.7,0.3-1.4,0.7-2,1.1c-1.6,1.3-1.5,3.9,0.3,5c0.6,0.4,1.3,0.6,2,0.8c2.6,0.8,5.2,1.5,7.8,2.3
	c0.2,0.1,0.5,0.2,0.9,0.3c-1.3,0.7-2.5,1.3-3.6,2c-1.3,0.9-2.7,1.8-3.8,2.9c-1.9,1.8-1.2,4.8,1.2,5.8c0.7,0.3,1.4,0.4,2.1,0.6
	c2.6,0.5,5.3,0.7,8,0.8c0.5,0,1.1-0.1,1.7,0.3c-0.4,0.3-0.7,0.6-1.1,0.9c-2.1,1.8-4.3,3.5-6.4,5.4c-0.6,0.5-1.1,1.3-1.4,2
	c-1.1,2.4,0.2,4.7,2.7,5.1c0.4,0.1,0.7,0.1,1.1,0.1c3.1,0,6.2-0.2,9.3-0.8c0.2-0.1,0.5,0,0.9,0c-0.3,0.4-0.5,0.7-0.7,1
	c-1.5,1.9-3.1,3.9-4.6,5.8c-0.4,0.5-0.8,1.1-1,1.8c-0.9,2.2,0.7,4.6,3.1,4.6c0.7,0,1.5-0.2,2.2-0.3c2.1-0.5,4.2-1.1,6.4-1.7
	c0.2-0.1,0.4-0.1,0.8-0.1c-0.2,0.4-0.3,0.7-0.5,1c-1.2,2.1-2.4,4.3-3.5,6.4c-0.3,0.5-0.6,1.1-0.8,1.6c-0.8,2.3,0.5,4.3,3,4.5
	c1.2,0.1,2.3-0.2,3.4-0.6c1.8-0.7,3.7-1.4,5.5-2.1c0.2-0.1,0.5-0.1,0.9-0.2c-0.1,0.4-0.1,0.6-0.1,0.8c-0.4,1.8-0.8,3.5-1.2,5.3
	c-0.2,0.9-0.2,1.9-0.1,2.9c0.1,1.2,1,2,2.1,2.1c0.7,0.1,1.5,0.1,2.2-0.2c1.1-0.3,2.1-0.8,3.1-1.3c2.1-1.2,4.2-2.5,6.2-3.8
	c0.4-0.2,0.7-0.4,1.1-0.7c0,0.3,0,0.4,0,0.5c-0.4,2.2-0.7,4.3-1.1,6.5c-0.2,1.2-0.3,2.5-0.3,3.7c0,1.7,1,2.5,2.7,2.5
	c1,0,2-0.4,2.8-0.9c1.5-1.1,3.1-2.2,4.6-3.3c0.8-0.6,1.5-1.2,2.3-1.8c0,0.3,0,0.5,0,0.6c-0.2,1.9-0.4,3.8-0.5,5.7
	c0,1.2,0.1,2.4,0.3,3.6c0.6,2.3,2.3,3,4.4,2.1c0.6-0.3,1.2-0.6,1.8-1c2.4-1.8,4.6-3.9,6.3-6.4c0.3-0.4,0.5-0.7,0.9-1.2
	c0.1,0.5,0.3,0.7,0.3,1c0.1,1.3,0.1,2.6,0.1,3.9c0,1.2-0.1,2.3-0.1,3.5c0.1,1.8,0.8,3.4,2.2,4.6c0.5,0.4,1,0.7,1.6,0.3
	c0.8-0.5,1.7-1,2.5-1.6c1.5-1.3,2.4-3.1,3.3-4.8c0.6-1.3,1.3-2.6,1.9-3.8c0.5-0.9,1-1.7,1.8-2.5c0.1,0.5,0.2,0.9,0.3,1.2
	c0.6,3.1,1.6,6.1,2.9,9c0.4,1,0.9,1.9,1.5,2.7c1,1.4,2.8,1.5,4,0.3c0.4-0.4,0.8-0.9,1-1.5c0.3-0.6,0.5-1.2,0.7-1.8
	c0.6-2.1,1.2-4.3,1.8-6.5c0.1-0.4,0.3-0.9,0.5-1.5c0.4,0.6,0.7,0.9,0.9,1.4c0.4,0.9,0.8,1.7,1.3,2.6c0.6,1.3,1.2,2.6,1.9,3.9
	c0.8,1.4,1.9,2.5,3.5,3.1c0.5-0.3,1-0.6,1.4-0.9c1.7-1.1,2.7-2.6,3-4.6c0.2-1.3,0.3-2.5,0.5-3.8c0.1-1.2,0.3-2.4,0.5-3.6
	c0-0.2,0.2-0.5,0.4-0.9c0.3,0.5,0.5,0.8,0.7,1.1c1.1,1.5,2.2,3,3.4,4.5c1.3,1.6,3.2,2.2,5.2,2.2c1.3,0,2.2-0.8,2.5-2
	c0.2-0.8,0.3-1.7,0.2-2.5c-0.1-1.9-0.3-3.8-0.4-5.7c0-0.7,0-1.3,0-2.1c0.3,0.2,0.5,0.4,0.8,0.6c1.9,1.4,3.8,2.9,5.7,4.3
	c0.7,0.5,1.6,1,2.4,1.3c2,0.8,3.6-0.1,4-2.2c0.3-1.2,0.1-2.4-0.2-3.6c-0.6-2.3-1.3-4.5-1.9-6.8c-0.1-0.4-0.3-0.8-0.2-1.2
	c2.1,1.3,4.1,2.5,6.1,3.7c0.8,0.5,1.7,0.9,2.6,1.3c1.2,0.4,2.4,0.4,3.5-0.5c1.9-1.7,2.2-3.8,1-6c-1-2.1-2-4.2-3.1-6.5
	c0.9,0.4,1.6,0.6,2.2,0.9c1.6,0.6,3.1,1.2,4.7,1.7c1.1,0.3,2.3,0.4,3.3-0.4c1.2-0.9,1.9-2.1,2-3.7c0-1.1-0.3-2.1-0.7-3
	c-0.9-1.7-1.7-3.3-2.6-5c-0.2-0.3-0.3-0.6-0.5-1c0.5,0,0.8,0,1.2,0c1.7,0.2,3.5,0.4,5.2,0.6c1,0.1,2.1,0,3.1-0.1
	c3.1-0.3,4.4-3.9,3.2-6.1c-0.5-0.9-1.1-1.7-1.7-2.4c-1.3-1.4-2.8-2.6-4.2-4c-0.2-0.2-0.4-0.4-0.6-0.7c1.1-0.2,2.1-0.4,3.2-0.6
	c1.6-0.3,3.1-0.6,4.7-1c1.6-0.4,2.5-1.5,2.9-3.1c0.4-1.5-0.1-2.8-1.3-3.9c-0.4-0.3-0.8-0.6-1.2-0.9c-1.1-0.7-2.3-1.5-3.4-2.2
	c-0.2-0.1-0.4-0.3-0.7-0.6c1.2-0.2,2.3-0.4,3.4-0.6c1.5-0.3,3-0.6,4.3-1.4c2-1.1,2.6-4,0.6-5.8c-0.6-0.5-1.2-0.9-1.9-1.3
	c-2.4-1.3-4.9-2.5-7.4-3.7c-0.2-0.1-0.4-0.3-0.7-0.5c0.9-0.3,1.7-0.5,2.4-0.8c2.3-0.7,4.4-1.7,6.4-2.9c1.1-0.7,2.1-1.4,2.9-2.5
	c0.9-1.4,0.8-2.8-0.5-3.9c-0.7-0.6-1.5-1-2.4-1.4c-1.3-0.5-2.8-0.8-4.1-1.2c-0.6-0.2-1.2-0.3-1.8-0.5c0.1-0.2,0.1-0.2,0.2-0.2
	c1.6-1,3.1-2.1,4.7-3.1c0.6-0.4,1.2-0.8,1.7-1.4c1.8-1.9,1.2-4.8-1.2-5.9c-0.6-0.3-1.3-0.5-1.9-0.6c-1.7-0.3-3.4-0.5-5.1-0.8
	c-1-0.1-1.9-0.3-3.1-0.5c1.1-1.2,2.1-2.1,3.1-3.2c1-1.2,2.1-2.3,3-3.6c0.5-0.7,0.9-1.5,1.2-2.3c0.6-2-0.2-3.5-2.1-4.2
	c-0.6-0.2-1.2-0.4-1.9-0.4c-1.6,0-3.1,0.1-4.7,0.2c-1.1,0.1-2.3,0.2-3.6,0.3c0.5-0.7,0.9-1.3,1.2-1.8c0.9-1.5,1.8-2.9,2.7-4.4
	c0.6-1.1,0.9-2.2,1-3.4c0.1-1.9-0.8-3.3-2.6-3.8c-0.5-0.2-1-0.2-1.5-0.3c-1.4-0.1-2.9,0-4.3,0.4c-1.8,0.5-3.5,1.1-5.3,1.6
	c-0.2,0.1-0.4,0-0.7,0.1c0.7-1.7,1.4-3.3,2-5c0.3-1,0.6-2,0.6-3c0.1-1.8-1-2.9-2.8-3.1c-0.5,0-1,0-1.4,0.1c-1.1,0.2-2.1,0.6-3.1,1.2
	c-2,1.2-4,2.5-6,3.7c-0.4,0.2-0.7,0.4-1.2,0.8c0.1-0.4,0.1-0.6,0.1-0.7c0.3-1.2,0.7-2.3,1-3.5c0.4-1.7,0.7-3.5,0.6-5.3
	c-0.1-2.4-2.8-4-5-2.9c-0.7,0.4-1.3,0.8-1.9,1.2c-1,0.8-1.9,1.6-2.8,2.5c-0.6,0.5-1.2,1-1.8,1.6c-0.3-2.6-0.5-5-0.8-7.4
	c-0.1-0.9-0.4-1.8-0.7-2.6c-0.3-0.9-1.1-1.3-2-1.2c-2.1,0.1-3.8,1.2-5.3,2.5c-0.1,0.1-0.1,0.2-0.2,0.3c-1.6,2.3-3.1,4.5-4.7,6.8
	c-0.2,0.2-0.4,0.5-0.7,0.8c0-0.4-0.1-0.5-0.1-0.7c-0.1-1.6-0.1-3.2-0.3-4.8c-0.1-1.3-0.4-2.7-0.7-4c-0.6-2.2-2-3.9-3.9-5.1
	c-1.7,0.7-3.1,1.8-4,3.3c-0.6,1.1-1.2,2.2-1.6,3.3c-0.6,1.6-1.1,3.2-1.7,4.8c-0.1,0.3-0.3,0.5-0.5,0.9c-0.7-1.9-1.3-3.7-1.9-5.4
	c-0.7-1.8-1.5-3.6-2.6-5.2c-0.8-1.1-1.9-1.9-3.3-2.3c-1-0.3-1.9,0-2.6,0.8c-0.4,0.6-0.8,1.2-1.1,1.9c-0.6,1.4-0.9,3-1,4.5
	c-0.2,2.8-0.4,5.5-0.5,8.3c0,0.4-0.1,0.9-0.2,1.5c-0.3-0.5-0.6-0.8-0.8-1.1c-1.3-1.9-2.7-3.8-4.1-5.6c-0.8-1-1.7-1.9-2.6-2.8
	c-0.9-0.8-2.1-1.3-3.4-1.3c-0.9-0.1-1.6,0.3-2.1,1.1c-0.3,0.5-0.5,1-0.7,1.5c-0.4,1.2-0.5,2.5-0.5,3.8c0.1,1.5,0.2,3,0.3,4.5
	c0,0.2,0,0.4,0,0.8c-0.7-0.7-1.3-1.2-1.9-1.8c-1.7-1.7-3.7-3.1-5.7-4.3c-3.1-1.9-6.1,0.9-5.9,3.4c0.1,1.1,0.3,2.1,0.6,3.2
	c1,3.4,2.1,6.7,3.1,10.1c0.1,0.4,0.2,0.7,0.3,1.2c-0.7-0.5-1.3-0.8-1.9-1.2c-2.2-1.5-4.6-2.7-7.2-3.4c-1.1-0.3-2.3-0.6-3.5-0.6
	c-1.8-0.1-2.9,1.2-3,2.9c-0.1,1.2,0.3,2.3,0.9,3.3c1.5,2.5,3,5,4.5,7.5c0.1,0.3,0.3,0.5,0.4,0.9c-1.4,0-2.7-0.3-3.9-0.6
	c-1.1-0.3-2.2-0.6-3.4-0.7c-1.8-0.2-3.3,0.4-4.6,1.6c-0.4,0.3-0.7,0.7-0.6,1.3c0.3,1.6,0.8,3.1,1.9,4.3c1.8,1.9,3.5,3.8,5.3,5.7
	c0.2,0.2,0.3,0.4,0.6,0.8c-0.7,0-1.1,0-1.5,0c-1.8,0-3.7,0-5.5,0.1c-1.5,0.1-2.9,0.4-4.2,1.3c-1.6,1-2,2.7-1,4.3
	c0.4,0.7,1,1.4,1.7,2c1.9,1.7,4.1,3,6.4,4.2c0.3,0.2,0.6,0.3,1,0.6c-0.8,0.3-1.5,0.6-2.2,0.9c-1.7,0.7-3.4,1.5-5,2.2
	c-0.5,0.2-1,0.6-1.4,0.9c-1.3,1.2-1.3,2.8,0,4c0.3,0.3,0.8,0.6,1.2,0.8c2.7,1.4,5.5,2.4,8.4,3.1c0.5,0.1,1.1,0.2,1.9,0.4
	c-0.7,0.4-1.1,0.6-1.6,0.9c-2.1,1-4.1,2.4-5.9,3.8c-0.5,0.4-1,0.9-1.5,1.4c-0.6,0.7-0.9,1.6-0.7,2.6c0.3,1.5,1,2.6,2.4,3.3
	c0.7,0.3,1.4,0.6,2.1,0.8c2.2,0.5,4.5,0.5,6.8,0.5c0.7,0,1.3,0,2.2,0c-0.3,0.3-0.4,0.5-0.5,0.7c-1,1.2-2,2.4-3,3.6
	c-0.7,0.9-1.2,1.9-1.5,3c-0.6,2.9,0.7,4.5,3.4,4.8c0,0,0.1,0,0.1,0c1.5-0.1,3-0.1,4.5-0.2c1.4-0.1,2.8-0.3,4.4-0.5
	c-0.3,0.6-0.5,1.1-0.8,1.6c-0.9,1.8-1.8,3.6-2.6,5.4c-0.4,0.8-0.7,1.7-0.9,2.6c-0.5,2.8,1.8,5.7,4.8,5.2c0.9-0.1,1.9-0.5,2.7-1
	c1.8-1,3.5-2.1,5.2-3.2c0.3-0.2,0.7-0.4,1.2-0.7c0,0.6,0,1,0,1.4c0,1.7,0,3.4,0,5.2c0,0.9,0.2,1.8,0.5,2.6c0.5,1.4,1.6,2,3.1,1.9
	c1.3-0.1,2.4-0.7,3.4-1.7c1.3-1.3,2.7-2.7,4-4c0.3-0.3,0.6-0.5,0.9-0.9c0.1,0.3,0.1,0.4,0.1,0.6c0.3,2.2,0.6,4.4,1,6.6
	c0.1,0.8,0.5,1.7,0.9,2.5c0.5,1,1.4,1.6,2.5,1.7c1.2,0.1,2.2-0.3,3.1-1.1c0.8-0.8,1.6-1.7,2.2-2.7c1.2-2,2.2-4,3.2-6
	c0.2-0.3,0.3-0.6,0.5-1.1c0.5,0.9,0.9,1.7,1.4,2.5c1.3,2.3,2.6,4.7,3.9,7c0.8,1.4,2.2,2.2,3.8,2.4c1.3,0.2,2.3-0.3,2.9-1.5
	c0.4-0.7,0.6-1.5,0.7-2.3c0.3-1.8,0.5-3.6,0.8-5.3c0.1-1,0.3-1.9,0.5-3c1.2,1.1,2.2,2.1,3.3,3c1,0.8,2,1.6,3.1,2.3
	c3.1,1.8,5.9-0.8,6.1-3.4c0-1,0-1.9-0.2-2.9c-0.3-1.6-0.7-3.2-1-4.8c-0.1-0.4-0.1-0.7-0.2-1.3c1.4,0.9,2.5,1.7,3.7,2.3
	c1,0.6,2,1.1,3.1,1.4c2.9,0.9,5.7-1.2,5.8-4.2c0-0.4,0-0.9,0-1.3c-0.1-1.9-0.8-3.6-1.4-5.3c-0.2-0.6-0.4-1.2-0.6-1.9
	c0.4,0,0.7-0.1,1-0.1c1,0,1.9,0,2.9,0c1.1,0,2.2-0.3,3.3-0.7c1.7-0.7,2.9-2.5,2.6-4.9c-0.2-1.4-0.7-2.7-1.4-3.9
	c-0.7-1.1-1.5-2.2-2.2-3.3c-0.2-0.3-0.4-0.7-0.7-1.1c0.8-0.3,1.5-0.5,2.1-0.7c1.4-0.6,2.7-1.1,4-1.9c1.2-0.7,2.1-1.8,2.4-3.1
	c0.7-2.4-0.1-4.6-2.1-6.2c-1.2-0.9-2.5-1.5-3.8-2c-0.7-0.3-1.5-0.5-2.6-0.9c0.4-0.3,0.7-0.4,0.9-0.6c0.9-0.7,1.8-1.4,2.5-2.2
	c0.8-0.9,1.6-1.8,2.3-2.8c0.6-0.9,0.9-2,0.7-3.2c-0.4-2.3-1.9-3.7-4.1-4.2c-1.2-0.3-2.5-0.4-3.8-0.5c-1.2-0.1-2.4-0.2-3.6-0.3
	c0.2-0.4,0.3-0.7,0.4-1c0.5-1.3,1.2-2.5,1.6-3.9c0.3-0.8,0.4-1.7,0.4-2.6c0-1.5-0.9-2.6-2.3-3c-0.8-0.2-1.7-0.2-2.5-0.2
	c-1.9,0.1-3.6,0.7-5.3,1.4c-0.7,0.2-1.3,0.5-2.1,0.7c0-0.3,0-0.5,0-0.7c0.1-2.4,0.3-4.7,0.3-7.1c0-1.2-0.4-2.4-1.1-3.4
	c-1-1.4-2.3-2-4-1.7c-1.5,0.2-2.7,0.9-3.8,1.9c-1.2,1.1-2.2,2.3-3.3,3.4c-0.5,0.5-0.9,1-1.4,1.6c-0.2-0.4-0.4-0.7-0.5-1
	c-0.4-1-0.8-2.1-1.3-3.1c-0.4-0.8-0.7-1.7-1.2-2.5c-1.1-1.9-2.8-2.8-5-2.7c-2.1,0.1-3.4,1.2-4.3,3c-0.3,0.5-0.5,1.1-0.7,1.7
	c-0.6,2-1.1,3.9-1.7,5.9c-0.1,0.2-0.2,0.4-0.4,0.9c-0.4-0.5-0.6-0.8-0.8-1.1c-1.3-1.3-2.8-2.4-4.4-3.2c-2.4-1.3-4.6-0.9-6.5,1.1
	c-0.7,0.7-1.1,1.6-1.3,2.5c-0.3,1.3-0.3,2.5-0.1,3.8c0.2,1.5,0.6,3,1.2,4.4c0.4,1,0.8,2.1,1.2,3.3c-0.5,0-0.9,0-1.3,0
	c-2.4,0-4.7-0.1-7.1,0c-3,0.1-5,1.7-5.6,4.4c-0.3,1.5-0.1,3,0.5,4.4c0.9,2,2.3,3.6,4.1,4.7c1.4,0.9,2.9,1.7,4.4,2.5
	c0.3,0.1,0.5,0.3,0.9,0.5c-1.3,1.2-2.6,2.2-3.8,3.3c-1.2,1.1-2.2,2.2-2.9,3.7c-1.4,2.9,0.3,6.5,3.4,7.1c1.9,0.4,3.8,0.2,5.7-0.4
	c1.8-0.6,3.5-1.4,5.2-2.1c0.4-0.2,0.8-0.3,1.2-0.5c0.4,0.6,0.7,1.1,1.1,1.6c1.1,1.7,2.5,3.2,4.1,4.5c3.3,2.6,7.1,3.1,11.1,2.2
	c2-0.4,3.8-1.1,5.2-2.7c2.5-2.8,4-6,4.1-9.7c0.1-3.4-1-6.4-3.5-8.8c-1.7-1.6-3.7-2.6-5.8-3.3c-1.4-0.4-2.7-0.8-4.1-1.1
	c0-0.1,0.1-0.3,0.1-0.3c1-1.1,2.1-2.1,3.4-2.8c0.9-0.5,1.9-0.7,3-0.6c1.5,0.2,2.8,0.8,4.2,1.4c2.5,1.1,4.4,2.9,5.7,5.3
	c2.1,4,2.8,8.2,2.2,12.7c-0.7,5.2-3.3,9.5-7.3,13c-4.5,4-9.8,5.6-15.6,5.8c-4.3,0.1-8.5-0.8-12.5-2.3C68,129.8,61.6,118.9,61,107.3
	c-0.2-4,0.4-8,1.4-11.8c1.9-6.8,5.2-12.7,10.4-17.7c3.7-3.6,8-6.3,12.6-8.4c8-3.7,16.4-5.1,25.1-3.4c10.5,1.9,19.3,7,26.1,15.1
	c8.3,9.9,12.4,21.4,12,34.4c-0.1,2.8-0.3,5.6-0.7,8.3c-1.2,8.4-4.4,16-9.4,22.8c-3.5,4.7-7.6,8.6-12.1,12.3
	c-9.4,7.6-20.1,11.7-32.1,12.4c-6,0.4-12.1-0.1-18-1.4c-6.8-1.5-13.1-4.2-18.8-8.4c-4.6-3.4-8.5-7.4-12.1-11.8
	c-7-8.6-11.6-18.4-14.2-29.2c-1.2-4.7-1.9-9.6-2.2-14.4c-0.4-5.2-0.2-10.4,0.6-15.5c1.2-7.6,3.8-14.8,7.6-21.4
	c4.5-7.8,10-14.7,17.1-20.3c8.8-6.9,18.7-11.3,29.5-13.8c2.9-0.7,5.9-1.1,8.8-1.7c3.4-0.7,6.8-1.1,10.2-1.1c4.7,0,9.2,0.5,13.8,1.4
	c7.6,1.4,14.9,3.9,21.8,7.5c9.5,5,17.7,11.6,25,19.4c5.6,6,10.2,12.7,13.6,20.2c2.6,5.6,4.4,11.6,5.6,17.7c0.3,1.5,0.6,3,0.7,4.5
	c0.1,1.7,0.1,3.3-0.5,5c0.5,0,0.8,0.1,1.1,0.1c5.6,0.2,11-0.8,16.2-2.9c2.2-0.9,4.3-2,6.1-3.8c0.9-0.9,1.6-2,2.2-3.1V97
	C207.9,95.8,207,95.2,205.8,94.9z"/>
</svg>
