<?xml version="1.0" standalone="no"?>
<!DOCTYPE svg PUBLIC "-//W3C//DTD SVG 20010904//EN"
 "http://www.w3.org/TR/2001/REC-SVG-20010904/DTD/svg10.dtd">
<svg id="flower" version="1.0" xmlns="http://www.w3.org/2000/svg"
 width="190.000000pt" height="280.000000pt" viewBox="0 0 190.000000 280.000000"
 preserveAspectRatio="xMidYMid meet">

<g transform="translate(0.000000,280.000000) scale(0.100000,-0.100000)"
fill="#000000" stroke="none">
<path d="M410 2745 l0 -55 -50 0 -50 0 0 -50 0 -50 -50 0 -50 0 0 -100 0 -100
50 0 50 0 0 -100 0 -100 -100 0 -100 0 0 -50 0 -50 -55 0 -55 0 0 -150 0 -150
55 0 55 0 0 -50 0 -50 50 0 50 0 0 -50 0 -50 50 0 50 0 0 -50 0 -50 -50 0 -50
0 0 -50 0 -50 50 0 50 0 0 -50 0 -50 100 0 100 0 0 -50 0 -50 100 0 100 0 0
50 0 50 50 0 50 0 0 -400 0 -400 -50 0 -50 0 0 -50 0 -50 -50 0 -50 0 0 -50 0
-50 -50 0 -50 0 0 -50 0 -50 50 0 50 0 0 50 0 50 100 0 100 0 0 100 0 100 50
0 50 0 0 400 0 400 50 0 50 0 0 -350 0 -350 50 0 50 0 0 -100 0 -100 50 0 50
0 0 -50 0 -50 100 0 100 0 0 -50 0 -50 50 0 50 0 0 50 0 50 -50 0 -50 0 0 50
0 50 -100 0 -100 0 0 100 0 100 -50 0 -50 0 0 350 0 350 100 0 100 0 0 50 0
50 150 0 150 0 0 50 0 50 50 0 50 0 0 100 0 100 -50 0 -50 0 0 50 0 50 100 0
100 0 0 100 0 100 45 0 45 0 0 150 0 150 -45 0 -45 0 0 50 0 50 -100 0 -100 0
0 100 0 100 -50 0 -50 0 0 50 0 50 -150 0 -150 0 0 55 0 55 -100 0 -100 0 0
-55 0 -55 -50 0 -50 0 0 55 0 55 -250 0 -250 0 0 -55z m500 -255 l0 -200 -50
0 -50 0 0 50 0 50 -50 0 -50 0 0 -100 0 -100 -100 0 -100 0 0 -50 0 -50 50 0
50 0 0 -50 0 -50 -50 0 -50 0 0 -50 0 -50 50 0 50 0 0 -50 0 -50 100 0 100 0
0 -50 0 -50 50 0 50 0 0 50 0 50 100 0 100 0 0 50 0 50 100 0 100 0 0 50 0 50
-100 0 -100 0 0 50 0 50 50 0 50 0 0 50 0 50 -50 0 -50 0 0 50 0 50 -50 0 -50
0 0 200 0 200 100 0 100 0 0 -50 0 -50 150 0 150 0 0 -100 0 -100 50 0 50 0 0
-50 0 -50 100 0 100 0 0 -100 0 -100 -50 0 -50 0 0 -100 0 -100 -50 0 -50 0 0
-50 0 -50 -50 0 -50 0 0 -50 0 -50 50 0 50 0 0 -100 0 -100 -150 0 -150 0 0
-50 0 -50 -150 0 -150 0 0 150 0 150 -50 0 -50 0 0 -150 0 -150 -100 0 -100 0
0 -50 0 -50 -100 0 -100 0 0 50 0 50 -100 0 -100 0 0 50 0 50 50 0 50 0 0 50
0 50 50 0 50 0 0 50 0 50 -150 0 -150 0 0 50 0 50 -50 0 -50 0 0 150 0 150
100 0 100 0 0 50 0 50 100 0 100 0 0 50 0 50 -50 0 -50 0 0 50 0 50 -50 0 -50
0 0 100 0 100 50 0 50 0 0 50 0 50 250 0 250 0 0 -200z m100 -400 l0 -100 -50
0 -50 0 0 -50 0 -50 -100 0 -100 0 0 100 0 100 50 0 50 0 0 50 0 50 100 0 100
0 0 -100z"/>
<path d="M1110 2340 l0 -50 50 0 50 0 0 -50 0 -50 100 0 100 0 0 50 0 50 50 0
50 0 0 50 0 50 -50 0 -50 0 0 -50 0 -50 -100 0 -100 0 0 50 0 50 -50 0 -50 0
0 -50z"/>
<path d="M1310 1840 l0 -50 100 0 100 0 0 50 0 50 -100 0 -100 0 0 -50z"/>
<path d="M510 1740 l0 -50 50 0 50 0 0 50 0 50 -50 0 -50 0 0 -50z"/>
<path d="M1110 1740 l0 -50 50 0 50 0 0 50 0 50 -50 0 -50 0 0 -50z"/>
<path d="M710 1640 l0 -50 50 0 50 0 0 50 0 50 -50 0 -50 0 0 -50z"/>
</g>
</svg>
